
<svg version="1.1" xmlns="http://www.w3.org/2000/svg" xmlns:xlink="http://www.w3.org/1999/xlink" width="129.86549"
    height="164.94244" viewBox="0,0,129.86549,164.94244">
    <g transform="translate(-159.35524,-62.9881)">
        <g data-paper-data="{&quot;isPaintingLayer&quot;:true}" fill-rule="nonzero" stroke-linejoin="miter"
            stroke-miterlimit="10" stroke-dasharray="" stroke-dashoffset="0" style="mix-blend-mode: normal">
            <path
                d="M210.06616,193.65828c-1.87033,-2.05983 -4.18887,-5.4012 -4.63458,-6.41121c-1.10253,-2.49837 -1.39176,-5.18855 -1.43716,-7.89481c-0.96844,-2.13544 -1.7767,-4.36359 -2.32259,-6.78124c-0.43285,-2.6304 -1.0193,-5.17892 -1.69758,-7.70045c-2.58619,-0.64751 -5.28937,-1.33757 -5.55973,-1.46099c-1.01491,-0.46328 -1.6895,-1.45168 -2.50911,-2.20507c-2.39981,-2.2059 -6.45109,-4.87658 -5.64354,-9.05049c0.30229,-1.5624 2.17358,-2.3388 3.26037,-3.5082c1.34961,-1.20343 2.77218,-2.34222 4.25587,-3.41896c-0.69991,-1.84542 -1.48061,-3.65207 -2.39679,-5.38048c-1.3059,-2.46364 -3.41754,-4.43048 -4.85539,-6.82064c-2.27193,-3.77668 -4.15158,-8.4541 -5.7868,-12.52798c-2.06841,-5.15309 -4.13873,-12.80606 1.90817,-16.72694c1.41756,-0.91916 3.38858,-0.2125 5.07854,-0.10801c7.26798,0.44936 13.35376,2.69675 20.00871,5.37464c4.71553,1.90902 8.7997,4.44917 12.98218,7.14327c1.49997,0.47897 2.98713,0.99454 4.46356,1.52104c6.32246,2.2546 13.15453,4.92226 18.93766,8.35983c1.31879,0.7839 2.45168,1.82171 3.55872,2.89447c4.65145,-0.11558 10.52129,-0.24663 13.38182,3.09433c0.4111,0.48015 0.72399,1.10538 0.96136,1.82214c1.41806,-1.42116 2.90417,-2.78022 4.47334,-4.06174c5.26047,-4.29614 11.44131,-7.68656 18.39254,-6.96316c0,0 2.49928,0.31009 2.18687,2.79078c-0.31241,2.48069 -2.81169,2.17061 -2.81169,2.17061c-5.32129,-0.81732 -10.59926,2.59476 -14.55946,5.85658c-2.5346,2.08763 -4.82851,4.38237 -6.96315,6.81387c-0.00461,1.1766 -0.04081,2.25203 -0.04314,3.07183c-0.00128,0.45151 -0.00864,0.90166 -0.02163,1.35061c0.75787,1.12915 1.36367,2.04047 1.5907,2.37801c-0.40775,5.30061 -0.08178,9.49939 -3.12521,13.50586c2.17731,7.08561 2.57841,14.91319 -1.00664,20.89549c-1.00684,1.55953 -1.73218,3.33859 -3.02052,4.67859c-1.07052,1.11344 -2.59168,1.69068 -3.89898,2.51836c-7.81093,4.94532 -16.2804,6.99936 -25.43921,7.57361c-2.35106,0.14741 -4.9277,0.45743 -7.48633,0.48863c-0.58377,1.44493 -2.33142,1.44493 -2.33142,1.44493l-0.00048,0c-0.33686,1.06017 -1.12633,2.11425 -2.61465,3.17499c-1.39123,0.99154 -9.55532,0.82343 -11.49835,0.83095c-3.54084,0.0137 -7.08809,-0.20853 -10.60382,-0.62657l-0.22175,-0.15807l-0.02991,0.08805l-2.99632,-1.00284c-1.02496,-0.31673 -1.76909,-1.26581 -1.76909,-2.38741c0,-1.19908 0.8505,-2.20099 1.98539,-2.44384l4.85042,-1.14627c3.18402,-1.29833 5.84402,-0.91985 9.25065,-0.9258c1.92294,-0.00336 3.84093,-0.05918 5.75816,-0.13033zM204.06347,160.82287c0,-4.1715 0,-8.343 0,-12.51449c0.00124,-1.08478 0.002,-2.16957 0.00248,-3.25437c-1.44048,0.70596 -2.85319,1.45337 -4.23097,2.2654c0.78076,2.36732 1.4967,4.75237 2.24274,7.08908c0.68712,2.15217 1.36058,4.28049 1.98574,6.41438zM198.06253,142.38422c1.93419,-1.17442 3.94284,-2.26025 6.00457,-3.26216c0.00068,-4.57656 0.00308,-9.15314 0.02251,-13.72954c0.01442,-3.39656 -0.5641,-8.65695 2.36406,-11.47123c-0.20269,-0.08474 -0.40657,-0.16813 -0.61172,-0.25013c-4.74647,-1.90994 -8.6593,-3.59443 -13.73926,-4.32325c-1.62174,-0.23267 -3.24724,-0.44192 -4.86367,-0.70849c-0.74461,-0.1228 -1.56962,-0.84493 -2.2167,-0.45918c-0.79549,0.47422 -1.03161,1.58824 -1.19739,2.49446c-0.80279,4.38817 1.88971,8.60737 3.63611,12.39159c1.14777,2.48706 2.01413,5.12044 3.43154,7.4665c1.45563,2.40932 3.56887,4.40493 4.8935,6.8876c0.855,1.60246 1.60125,3.26582 2.27646,4.96384zM219.21588,121.17292c-2.82653,-0.69283 -5.69601,-1.26214 -8.354,-2.28532c-0.55493,-0.21362 -1.04084,-1.47984 -1.44282,-1.04415c-0.67378,0.73027 -0.2808,1.96426 -0.31904,2.95375c-0.05923,1.53256 0.02364,3.06729 0.02705,4.60097c0.0085,3.82355 0.00413,7.64723 -0.00346,11.4709c6.93699,-2.82991 14.25346,-4.81205 21.21318,-6.10729c0.67978,-0.12651 1.35209,-0.25534 2.0193,-0.38294c-3.62695,-2.85796 -7.40116,-5.51714 -11.23146,-7.97249c-0.64195,-0.41151 -1.27728,-0.82338 -1.90875,-1.23344zM257.27338,167.98812c-1.70628,2.43512 -3.6693,5.1975 -3.92524,5.38364c-1.9563,1.42272 -4.29683,2.91583 -6.71778,2.77321c-2.48696,-0.14651 -3.97118,-4.85349 -4.53228,-7.58417c-0.22136,-0.00775 -0.4423,-0.01215 -0.66255,-0.01094c-10.86702,0.05942 -21.70677,0.39479 -32.3346,-1.5577c0,2.10588 0,4.21176 0,6.31764c0,1.47935 -0.10315,3.14622 -0.1211,4.83798c2.248,4.58978 5.32489,8.73904 7.47015,13.55653c3.45686,0.81708 7.89312,-0.04653 11.00547,-0.24245c8.36962,-0.52686 15.89431,-2.36816 23.06745,-6.81104c0.99849,-0.61844 2.21117,-0.96811 3.01853,-1.81811c1.0238,-1.07785 1.54612,-2.53426 2.31917,-3.8014c1.17209,-1.72475 1.27076,-4.00236 1.43638,-6.07629c0.13221,-1.65558 0.12076,-3.31686 -0.0236,-4.96689zM245.35329,133.66774c-0.48686,0.00198 -0.96935,0.00964 -1.44426,0.02315c1.96454,1.85885 3.85232,3.78289 5.64267,5.77073c1.31624,1.46143 2.45817,3.24489 3.52826,5.08737c0.57087,-0.78441 1.1495,-1.56268 1.73756,-2.33307c-0.2229,-0.27092 -0.45164,-0.53716 -0.68766,-0.79758c-2.18085,-2.4063 -4.90601,-4.26515 -7.35341,-6.40406c-0.48975,-0.42802 -0.9586,-0.8844 -1.42317,-1.34653zM255.33539,159.47523c-0.7143,-1.92253 -1.6022,-3.78246 -2.64352,-5.5479c-0.28639,0.42219 -0.57231,0.84476 -0.85809,1.26743c-1.38761,2.05233 -3.08085,4.73859 -4.08596,7.46732c0.59782,-0.32106 1.18911,-0.66155 1.80254,-0.93877c1.8723,-0.84612 4.05314,-1.19273 5.78502,-2.24808zM198.39027,159.44851c-0.36328,-1.17181 -0.73688,-2.34635 -1.11452,-3.52918c-0.59965,-1.8782 -1.17519,-3.79392 -1.78386,-5.70586c-0.88475,0.66956 -1.74953,1.38106 -2.59203,2.14189c-3.28661,1.84808 0.03965,2.97095 2.43328,5.18519c0.84771,0.78418 1.89264,1.40364 3.05714,1.90796zM253.40373,134.14385c1.7269,1.51031 3.61076,3.1604 4.24807,3.72797c-0.06578,-1.2479 -0.19945,-2.29421 -0.45441,-2.61004c-0.70285,-0.87067 -2.09397,-0.87564 -3.2062,-1.037c-0.19273,-0.02796 -0.38866,-0.05494 -0.58746,-0.08092zM253.0573,165.64496c-2.13207,0.94628 -4.7573,2.10506 -5.9339,2.60347c0.25324,0.77913 0.63336,1.5418 0.79652,2.34101c0.04677,0.22909 -0.35787,0.78655 -0.14514,0.68628c2.22262,-1.04766 3.83966,-3.36137 5.28253,-5.63075zM257.04024,151.41558c0.20123,-1.45362 0.36727,-2.91218 0.47636,-4.38248c-0.57276,0.77995 -1.13761,1.56667 -1.69669,2.35828c0.20274,0.34504 0.40621,0.68326 0.61121,1.01263c0.20528,0.32981 0.40848,0.66718 0.60912,1.01156zM238.96036,129.27358c0.18308,-0.02214 0.36638,-0.04327 0.54995,-0.06332c-0.5473,-0.29411 -1.10178,-0.58207 -1.66222,-0.86416c0.37257,0.30706 0.74336,0.61623 1.11227,0.92748z"
                fill="#9966ff" stroke="none" stroke-width="0.5" stroke-linecap="butt" />
            <path d="M222.90503,226.93054v-19.75598h65.3157v19.75598z" fill="#9966ff" stroke="#000000" stroke-width="2"
                stroke-linecap="butt" /><text transform="translate(228.39528,94.49389) scale(0.4129,0.4129)"
                font-size="40" xml:space="preserve" fill="#9966ff" fill-rule="nonzero" stroke="none" stroke-width="1"
                stroke-linecap="butt" stroke-linejoin="miter" stroke-miterlimit="10" stroke-dasharray=""
                stroke-dashoffset="0" font-family="Sans Serif" font-weight="normal" text-anchor="start"
                style="mix-blend-mode: normal">
                <tspan x="0" dy="0">helo</tspan>
                <tspan x="0" dy="46.15px"> </tspan>
            </text>
            <path d="M159.60524,63.2381l120.955,47.57563" fill="none" stroke="#000000" stroke-width="0.5"
                stroke-linecap="round" />
        </g>
    </g>
</svg>